PathFileType	4	(X/Y/Z)	/Users/niels/Desktop/University/Third Semester/Perception and Action/Exam/Gymnastics Motion Tracking/Code for Gym Tracking/Analyzed Data/Webcam_Backflip/id6_3_pure_Sports2D/id6_3_pure_Sports2D_px_person00.trc
DataRate	CameraRate	NumFrames	NumMarkers	Units	OrigDataRate	OrigDataStartFrame	OrigNumFrames
29.8125	29.8125	8	22	m	29.8125	40	160
Frame#	Time	Hip			RHip			RKnee			RAnkle			RBigToe			RSmallToe			RHeel			LHip			LKnee			LAnkle			LBigToe			LSmallToe			LHeel			Neck			Head			Nose			RShoulder			RElbow			RWrist			LShoulder			LElbow			LWrist		
		X1	Y1	Z1	X2	Y2	Z2	X3	Y3	Z3	X4	Y4	Z4	X5	Y5	Z5	X6	Y6	Z6	X7	Y7	Z7	X8	Y8	Z8	X9	Y9	Z9	X10	Y10	Z10	X11	Y11	Z11	X12	Y12	Z12	X13	Y13	Z13	X14	Y14	Z14	X15	Y15	Z15	X16	Y16	Z16	X17	Y17	Z17	X18	Y18	Z18	X19	Y19	Z19	X20	Y20	Z20	X21	Y21	Z21	X22	Y22	Z22
40	1.341719077568134	0.9639019826810912	-0.34203102686524134	0.0	0.9621758249445053	-0.3418610482162318	0.0	0.8774194012687241	-0.3401484313365413	0.0	0.9255104517106171	-0.2847334928115385	0.0	0.9243201321441196	-0.27368252143932686	0.0	0.9265518097809896	-0.2735682216173979	0.0	0.9335687744499588	-0.27697012288876116	0.0	0.9668814900472633	-0.3418926590617887	0.0	0.9067210949665752	-0.35934082203043544	0.0	0.9344447570768825	-0.28703742922806097	0.0	0.9322225106264683	-0.27386142495957627	0.0	0.9444129903883746	-0.31258611680773835	0.0	0.9442078711463503	-0.27046210654980407	0.0	0.9052936407865579	-0.44501763126010063	0.0	0.8839106298190263	-0.49243893174782616	0.0	0.8815615044670826	-0.47622573117715833	0.0	0.9075635321830711	-0.4281730064608321	0.0	0.9105070240352351	-0.36840687620503615	0.0	0.8771631634555636	-0.34347544993630136	0.0	0.9166522721571871	-0.43557123470288645	0.0	0.9179815039210927	-0.3735203431146944	0.0	0.8958323571957085	-0.3498129909055544	0.0
41	1.3752620545073373	0.9534869343295715	-0.32826432089803287	0.0	0.9496116588456561	-0.32809289382155676	0.0	0.8626180076174347	-0.35703661945669757	0.0	0.8847332723775253	-0.2925763056804281	0.0	0.87232337705119	-0.28693615395807	0.0	0.873781154269222	-0.28492734901363614	0.0	0.8897537026232579	-0.28135293986068705	0.0	0.9569934804559208	-0.32855144748754994	0.0	0.8938586882670773	-0.3720735148274766	0.0	0.8994071762711874	-0.29432890936714745	0.0	0.8859046470501026	-0.28809514384583673	0.0	0.9016135592894136	-0.32944868824094203	0.0	0.9063132392660049	-0.27429904580989356	0.0	0.9329974301420813	-0.45003002755131494	0.0	0.9296661726302681	-0.5026251848220082	0.0	0.9169121325030221	-0.4873308100124797	0.0	0.9305714700516875	-0.4316414553716592	0.0	0.909472970064784	-0.3768753462928662	0.0	0.868063740245583	-0.3679358550312857	0.0	0.9417656975754755	-0.4390801939182883	0.0	0.9214512735065267	-0.38425939251065394	0.0	0.8999242990906602	-0.37427820890400826	0.0
42	1.4088050314465406	0.9396270003948732	-0.32193012825980466	0.0	0.9337923892585354	-0.32195310129144233	0.0	0.8553920070935355	-0.37847880930905387	0.0	0.846142870399436	-0.31801510505334707	0.0	0.8259882307247416	-0.32217141088278506	0.0	0.8261565267468141	-0.3178863041576494	0.0	0.8472890610650107	-0.3047577729247992	0.0	0.9438446936811383	-0.32295594709252706	0.0	0.8830647257385337	-0.3872112494018157	0.0	0.8677011445677181	-0.31904654616819894	0.0	0.8470991784572959	-0.32270688259509817	0.0	0.8637836633389174	-0.35881559682999614	0.0	0.8717495842106822	-0.29841684364342197	0.0	0.9595581639833174	-0.44840521364206837	0.0	0.9735059087376517	-0.5016686891229483	0.0	0.9530377873641517	-0.48864628923173226	0.0	0.9530403104032075	-0.43048413094109855	0.0	0.9111864395353056	-0.38922239901024097	0.0	0.868691699711101	-0.39767675564251653	0.0	0.9653130834722282	-0.43659623760567084	0.0	0.9260861353591416	-0.39766007462199093	0.0	0.9140193286388227	-0.4014833837964343	0.0
43	1.442348008385744	0.9240491738837177	-0.3239876000570685	0.0	0.9166778429385571	-0.3241397811114526	0.0	0.8537799494950781	-0.402624213966909	0.0	0.8147931170616523	-0.35926067901476777	0.0	0.7928863171536911	-0.376263929643709	0.0	0.7912000254114321	-0.3700086220695971	0.0	0.8117724747770456	-0.3459468009751264	0.0	0.9290391591954529	-0.32570774918844925	0.0	0.874244008923999	-0.4052815157162751	0.0	0.8441743929801203	-0.35975424615714374	0.0	0.8226797467404287	-0.3741243062348795	0.0	0.8372929743281085	-0.3991064123016923	0.0	0.8454641561945712	-0.34111804592781214	0.0	0.9815647082222316	-0.4414029275756072	0.0	1.0108041574094644	-0.49186059134331783	0.0	0.9850011767525072	-0.48210178635423967	0.0	0.9721437572959678	-0.4257584172509497	0.0	0.9171662925158468	-0.40539150959847375	0.0	0.8808354173631295	-0.43031045688811653	0.0	0.9844134773431621	-0.42936744251477055	0.0	0.9326672692189272	-0.41317831409354977	0.0	0.9362059456708649	-0.42952080498720935	0.0
44	1.4758909853249473	0.9082867553978523	-0.3345911750849482	0.0	0.9000366957807439	-0.3346897471995032	0.0	0.8549888465410046	-0.42858238668390064	0.0	0.7948675819768138	-0.4123685771223208	0.0	0.7781016881922972	-0.44211293048591294	0.0	0.774292101069269	-0.43496713477785304	0.0	0.7879750993164484	-0.4012877441453189	0.0	0.9138524184310644	-0.3365415580823052	0.0	0.8674917445864924	-0.42701778651940153	0.0	0.8323181520753635	-0.4123228466487334	0.0	0.8162723224651044	-0.4358742320689769	0.0	0.8264430580797604	-0.44836717957529504	0.0	0.8308993522640636	-0.39813595766850884	0.0	0.9966666738165256	-0.4316522429019851	0.0	1.0389179141944378	-0.47624489598056674	0.0	1.0093455403153329	-0.47056791709675094	0.0	0.9857179652020132	-0.4195028550302221	0.0	0.9284170239296495	-0.42379519772787116	0.0	0.9044520309630982	-0.462015676323871	0.0	0.9969717194580359	-0.4199690894413895	0.0	0.9423466212715617	-0.42935354098522116	0.0	0.9611623991478272	-0.4565410018487985	0.0
45	1.5094339622641506	0.8934326868504195	-0.3533651632804799	0.0	0.8851801535823777	-0.35330366534452884	0.0	0.8569053703323136	-0.4565186364647985	0.0	0.7881543820492916	-0.47206400027004464	0.0	0.7817692252171015	-0.510977130395192	0.0	0.7761406467935931	-0.5043027291805354	0.0	0.7782531054877544	-0.46518145510416214	0.0	0.8991524088519468	-0.3549444702643879	0.0	0.8628758118793584	-0.4528845986004806	0.0	0.8317485450625239	-0.4713142446563797	0.0	0.825719843211051	-0.500889795704405	0.0	0.8304979288469203	-0.5033005077449432	0.0	0.8276814092957129	-0.4634152342654295	0.0	1.0039088410595152	-0.422314027004604	0.0	1.0567889434446331	-0.45813198551421425	0.0	1.0245968724080816	-0.4573033096837453	0.0	0.9927246545330213	-0.41420583924095816	0.0	0.9445635925914343	-0.4418066285740667	0.0	0.9372661160428825	-0.4883997842362925	0.0	1.0020674235449927	-0.41143363569240604	0.0	0.9555037664122026	-0.4438905268818561	0.0	0.9840332650508845	-0.4794273070387485	0.0
46	1.542976939203354	0.8803004925103138	-0.3797090709126677	0.0	0.8729868343377419	-0.3795012047940395	0.0	0.8588743783433396	-0.48723780399840816	0.0	0.7933323980023439	-0.5333101974508372	0.0	0.799060552947843	-0.5760065461148064	0.0	0.792436675160128	-0.5708703250644507	0.0	0.7816572543267036	-0.531709261783379	0.0	0.8856372503662984	-0.38048570146376315	0.0	0.8604963851212923	-0.48314711094233	0.0	0.837284708304776	-0.5317402149718871	0.0	0.8428753270809005	-0.5640479035543429	0.0	0.8427274704957587	-0.5601394893551965	0.0	0.8306985903912976	-0.5306195945805322	0.0	1.0037050510857581	-0.4162070402035938	0.0	1.064479369366152	-0.4409993000901491	0.0	1.0309261562508663	-0.4454901738982254	0.0	0.9932966331634386	-0.4121240089580958	0.0	0.9634674986468583	-0.45684736253713665	0.0	0.9747726938059326	-0.505784154171067	0.0	1.0000429214332265	-0.40644964848538084	0.0	0.9706582643997643	-0.45427417604091136	0.0	1.0036891744828578	-0.493249216781168	0.0
47	1.5765199161425574	0.8696290805652619	-0.4128351748229634	0.0	0.8639983220664015	-0.41256920823060356	0.0	0.8612934606596945	-0.5215735005454694	0.0	0.8065438974897261	-0.5925148137458188	0.0	0.8226427599902111	-0.6339427500029695	0.0	0.8160381293508439	-0.6308603180817021	0.0	0.7943170784523239	-0.5962363132354295	0.0	0.8740925440380901	-0.4126308673259258	0.0	0.8604475431879344	-0.5178891522717869	0.0	0.8431262953364856	-0.5901191701669186	0.0	0.8589720304118015	-0.6226671773940176	0.0	0.855222863607221	-0.6158610663135867	0.0	0.8343650631117285	-0.5948918422974699	0.0	0.9973610827470781	-0.41526332134859845	0.0	1.0629428057970673	-0.4280646668410108	0.0	1.0294480700561306	-0.43768855098111464	0.0	0.9883071249346645	-0.41479839270765073	0.0	0.9818341787971027	-0.4673953168412867	0.0	1.0110801784968888	-0.5123542663884679	0.0	0.9921239113111456	-0.406877084689735	0.0	0.9846199247922848	-0.4587314888177184	0.0	1.0198289825352704	-0.493649879514274	0.0
